<svg width="32" height="32" xmlns="http://www.w3.org/2000/svg" xmlns:xlink="http://www.w3.org/1999/xlink"><defs><linearGradient x1="0%" y1="0%" x2="99.715%" y2="99.715%" id="c"><stop stop-color="#FF23FF" offset="0%"/><stop stop-color="#3F2DFF" offset="100%"/></linearGradient><path d="M14.305 4.1h2.05c.113 0 .205.092.205.205v11.89a.206.206 0 0 1-.205.205h-2.05a.206.206 0 0 1-.205-.205V4.305c0-.113.092-.205.205-.205zm4.92 7.175h2.05c.113 0 .205.092.205.205v4.715a.206.206 0 0 1-.205.205h-2.05a.206.206 0 0 1-.205-.205V11.48c0-.113.092-.205.205-.205zm4.92-1.845h2.05c.113 0 .205.092.205.205v6.56a.206.206 0 0 1-.205.205h-2.05a.206.206 0 0 1-.205-.205v-6.56c0-.113.092-.205.205-.205zM29.68 20.5H10.82a.82.82 0 0 1-.82-.82V.82a.82.82 0 0 1 .82-.82h18.86a.82.82 0 0 1 .82.82v18.86a.82.82 0 0 1-.82.82zM28.655 1.845h-16.81v16.81h16.81V1.845z" id="b"/><filter x="-80.5%" y="-65.9%" width="261%" height="261%" filterUnits="objectBoundingBox" id="a"><feOffset dy="3" in="SourceAlpha" result="shadowOffsetOuter1"/><feGaussianBlur stdDeviation="5" in="shadowOffsetOuter1" result="shadowBlurOuter1"/><feColorMatrix values="0 0 0 0 0.490799576 0 0 0 0 0.194812378 0 0 0 0 0.892436594 0 0 0 0.2 0" in="shadowBlurOuter1"/></filter></defs><g transform="translate(1)" fill="none" fill-rule="evenodd"><use fill="#000" filter="url(#a)" xlink:href="#b"/><use fill="url(#c)" xlink:href="#b"/></g></svg>