<?xml version="1.0" encoding="UTF-8"?>
<svg width="150px" height="150px" viewBox="0 0 150 150" version="1.1" xmlns="http://www.w3.org/2000/svg" xmlns:xlink="http://www.w3.org/1999/xlink">
    <!-- Generator: Sketch 59.1 (86144) - https://sketch.com -->
    <title>形状结合</title>
    <desc>Created with Sketch.</desc>
    <defs>
        <linearGradient x1="100%" y1="100%" x2="0%" y2="0%" id="linearGradient-1">
            <stop stop-color="#FAFAFB" offset="0%"></stop>
            <stop stop-color="#F2F4F5" offset="100%"></stop>
        </linearGradient>
    </defs>
    <g id="页面-1" stroke="none" stroke-width="1" fill="none" fill-rule="evenodd">
        <g id="Ant-V-PC-定稿-1101" transform="translate(-1174.000000, -3868.000000)" fill="url(#linearGradient-1)">
            <path d="M1184,4008 L1184,4018 L1174,4018 L1174,4008 L1184,4008 Z M1244,4008 L1244,4018 L1234,4018 L1234,4008 L1244,4008 Z M1204,4008 L1204,4018 L1194,4018 L1194,4008 L1204,4008 Z M1224,4008 L1224,4018 L1214,4018 L1214,4008 L1224,4008 Z M1324,4008 L1324,4018 L1314,4018 L1314,4008 L1324,4008 Z M1284,4008 L1284,4018 L1274,4018 L1274,4008 L1284,4008 Z M1304,4008 L1304,4018 L1294,4018 L1294,4008 L1304,4008 Z M1264,4008 L1264,4018 L1254,4018 L1254,4008 L1264,4008 Z M1244,3988 L1244,3998 L1234,3998 L1234,3988 L1244,3988 Z M1204,3988 L1204,3998 L1194,3998 L1194,3988 L1204,3988 Z M1224,3988 L1224,3998 L1214,3998 L1214,3988 L1224,3988 Z M1184,3988 L1184,3998 L1174,3998 L1174,3988 L1184,3988 Z M1324,3988 L1324,3998 L1314,3998 L1314,3988 L1324,3988 Z M1284,3988 L1284,3998 L1274,3998 L1274,3988 L1284,3988 Z M1304,3988 L1304,3998 L1294,3998 L1294,3988 L1304,3988 Z M1264,3988 L1264,3998 L1254,3998 L1254,3988 L1264,3988 Z M1244,3968 L1244,3978 L1234,3978 L1234,3968 L1244,3968 Z M1204,3968 L1204,3978 L1194,3978 L1194,3968 L1204,3968 Z M1224,3968 L1224,3978 L1214,3978 L1214,3968 L1224,3968 Z M1184,3968 L1184,3978 L1174,3978 L1174,3968 L1184,3968 Z M1324,3968 L1324,3978 L1314,3978 L1314,3968 L1324,3968 Z M1284,3968 L1284,3978 L1274,3978 L1274,3968 L1284,3968 Z M1304,3968 L1304,3978 L1294,3978 L1294,3968 L1304,3968 Z M1264,3968 L1264,3978 L1254,3978 L1254,3968 L1264,3968 Z M1324,3948 L1324,3958 L1314,3958 L1314,3948 L1324,3948 Z M1284,3948 L1284,3958 L1274,3958 L1274,3948 L1284,3948 Z M1304,3948 L1304,3958 L1294,3958 L1294,3948 L1304,3948 Z M1264,3948 L1264,3958 L1254,3958 L1254,3948 L1264,3948 Z M1244,3948 L1244,3958 L1234,3958 L1234,3948 L1244,3948 Z M1184,3948 L1184,3958 L1174,3958 L1174,3948 L1184,3948 Z M1224,3948 L1224,3958 L1214,3958 L1214,3948 L1224,3948 Z M1204,3948 L1204,3958 L1194,3958 L1194,3948 L1204,3948 Z M1244,3928 L1244,3938 L1234,3938 L1234,3928 L1244,3928 Z M1204,3928 L1204,3938 L1194,3938 L1194,3928 L1204,3928 Z M1224,3928 L1224,3938 L1214,3938 L1214,3928 L1224,3928 Z M1184,3928 L1184,3938 L1174,3938 L1174,3928 L1184,3928 Z M1324,3928 L1324,3938 L1314,3938 L1314,3928 L1324,3928 Z M1284,3928 L1284,3938 L1274,3938 L1274,3928 L1284,3928 Z M1304,3928 L1304,3938 L1294,3938 L1294,3928 L1304,3928 Z M1264,3928 L1264,3938 L1254,3938 L1254,3928 L1264,3928 Z M1204,3908 L1204,3918 L1194,3918 L1194,3908 L1204,3908 Z M1224,3908 L1224,3918 L1214,3918 L1214,3908 L1224,3908 Z M1184,3908 L1184,3918 L1174,3918 L1174,3908 L1184,3908 Z M1324,3908 L1324,3918 L1314,3918 L1314,3908 L1324,3908 Z M1284,3908 L1284,3918 L1274,3918 L1274,3908 L1284,3908 Z M1304,3908 L1304,3918 L1294,3918 L1294,3908 L1304,3908 Z M1264,3908 L1264,3918 L1254,3918 L1254,3908 L1264,3908 Z M1244,3908 L1244,3918 L1234,3918 L1234,3908 L1244,3908 Z M1244,3888 L1244,3898 L1234,3898 L1234,3888 L1244,3888 Z M1324,3888 L1324,3898 L1314,3898 L1314,3888 L1324,3888 Z M1284,3888 L1284,3898 L1274,3898 L1274,3888 L1284,3888 Z M1304,3888 L1304,3898 L1294,3898 L1294,3888 L1304,3888 Z M1264,3888 L1264,3898 L1254,3898 L1254,3888 L1264,3888 Z M1204,3888 L1204,3898 L1194,3898 L1194,3888 L1204,3888 Z M1224,3888 L1224,3898 L1214,3898 L1214,3888 L1224,3888 Z M1184,3888 L1184,3898 L1174,3898 L1174,3888 L1184,3888 Z M1284,3868 L1284,3878 L1274,3878 L1274,3868 L1284,3868 Z M1304,3868 L1304,3878 L1294,3878 L1294,3868 L1304,3868 Z M1324,3868 L1324,3878 L1314,3878 L1314,3868 L1324,3868 Z M1184,3868 L1184,3878 L1174,3878 L1174,3868 L1184,3868 Z M1224,3868 L1224,3878 L1214,3878 L1214,3868 L1224,3868 Z M1204,3868 L1204,3878 L1194,3878 L1194,3868 L1204,3868 Z M1244,3868 L1244,3878 L1234,3878 L1234,3868 L1244,3868 Z M1264,3868 L1264,3878 L1254,3878 L1254,3868 L1264,3868 Z" id="形状结合"></path>
        </g>
    </g>
</svg>