<svg width="32" height="32" xmlns="http://www.w3.org/2000/svg"><defs><linearGradient x1="19.75%" y1="0%" x2="80.078%" y2="99.715%" id="a"><stop stop-color="#2DF5FF" offset="0%"/><stop stop-color="#2D36FF" offset="100%"/></linearGradient></defs><path d="M17.071 12l4.526 4.525 4.137-4.138V22a2 2 0 0 1-2 2h-8.8a2 2 0 0 1-2-2v-5.862L17.07 12zm4.525 2.262L17.07 9.737l-4.137 4.137-1.803 1.803L10 14.546l2.933-2.934V2a2 2 0 0 1 2-2h1.2v.8a.8.8 0 0 0 .7.794l.1.006h4.8a.8.8 0 0 0 .795-.7l.006-.1V0h1.2a2 2 0 0 1 2 2l-.001 5.862 1.803-1.802 1.132 1.132-2.934 2.932-3.007 3.006v.001l-1.13 1.132-.001-.001z" fill="url(#a)" fill-rule="evenodd"/></svg>