<svg width="80" height="80" xmlns="http://www.w3.org/2000/svg" xmlns:xlink="http://www.w3.org/1999/xlink"><defs><path id="a" d="M0 .114h23.438v41.452H0z"/><path id="c" d="M.073.114h23.442v41.452H.073z"/><path id="e" d="M.07.126h46.879v26.978H.069z"/></defs><g fill="none" fill-rule="evenodd"><g transform="translate(15 26.325)"><mask id="b" fill="#fff"><use xlink:href="#a"/></mask><path d="M0 .114l23.438 13.818v27.634L2.005 28.932A4.075 4.075 0 0 1 0 25.422V.114z" fill="#8E56FF" mask="url(#b)"/></g><g transform="translate(40.68 26.325)"><mask id="d" fill="#fff"><use xlink:href="#c"/></mask><path d="M23.515.114v25.308a4.075 4.075 0 0 1-2.006 3.51L.075 41.566.073 13.932 23.515.114z" fill="#7521FF" mask="url(#d)"/></g><g transform="translate(16.088 11.092)"><mask id="f" fill="#fff"><use xlink:href="#e"/></mask><path d="M25.578.69l21.37 12.596-23.44 13.818L.068 13.286 21.44.69a4.074 4.074 0 0 1 4.14 0" fill="#FBA813" mask="url(#f)"/></g></g></svg>