<svg width="32" height="32" xmlns="http://www.w3.org/2000/svg"><defs><linearGradient x1="0%" y1="4.442%" x2="99.715%" y2="95.298%" id="a"><stop stop-color="#2DF5FF" offset="0%"/><stop stop-color="#2D36FF" offset="100%"/></linearGradient></defs><path d="M31.15 9.16c.822 0 1.164-1.064.497-1.554L21.5.165a.84.84 0 0 0-.999 0L10.352 7.606c-.666.488-.324 1.554.5 1.554h1.645v10.018h-1.913a.214.214 0 0 0-.213.215v1.393c0 .118.096.214.213.214h20.832a.214.214 0 0 0 .213-.214v-1.393a.214.214 0 0 0-.213-.215h-1.913V9.16h1.648zM21 2.053l7.204 5.283H13.796L21 2.053zM14.41 9.16h3.109v10.018H14.41V9.16zm5.022 0h3.11v10.018h-3.11V9.16zm8.158 10.018h-3.136V9.16h3.136v10.018z" fill="url(#a)" fill-rule="evenodd"/></svg>