<svg width="32" height="32" xmlns="http://www.w3.org/2000/svg"><defs><linearGradient x1="20.414%" y1="0%" x2="79.417%" y2="99.715%" id="a"><stop stop-color="#F2FF4B" offset="0%"/><stop stop-color="#16C41D" offset="100%"/></linearGradient></defs><path d="M25.456 17.556l-.092-.059C27.584 18.377 29 19.71 29 21.2c0 2.651-4.477 4.8-10 4.8S9 23.851 9 21.2c0-1.49 1.415-2.822 3.636-3.703C11.61 18.137 11 18.934 11 19.8c0 2.099 3.582 3.8 8 3.8s8-1.701 8-3.8c0-.84-.573-1.615-1.544-2.244l-.092-.059zM19 0a8 8 0 0 1 8 8c0 2.946-2.667 6.946-8 12-5.333-5.054-8-9.054-8-12a8 8 0 0 1 8-8zm0 2.333c-3.13 0-5.667 2.526-5.667 5.642 0 1.854 1.855 4.837 5.667 8.692l.172-.175c3.696-3.77 5.495-6.691 5.495-8.517 0-3.116-2.537-5.642-5.667-5.642z" fill="url(#a)" fill-rule="evenodd"/></svg>