<svg width="32" height="32" xmlns="http://www.w3.org/2000/svg"><defs><linearGradient x1="0%" y1="13.265%" x2="99.715%" y2="86.525%" id="a"><stop stop-color="#FF23FF" offset="0%"/><stop stop-color="#3F2DFF" offset="100%"/></linearGradient></defs><path d="M30.029 1c.757 0 1.371.614 1.371 1.371V18.83c0 .757-.614 1.371-1.371 1.371H10.37A1.371 1.371 0 0 1 9 18.829V2.37C9 1.614 9.614 1 10.371 1H30.03zm0 3.771H10.37V18.83h19.66V4.77zM20 7.8a1 1 0 0 1 1 1v6a1 1 0 0 1-2 0v-6a1 1 0 0 1 1-1zm4 4a1 1 0 0 1 1 1v2a1 1 0 0 1-2 0v-2a1 1 0 0 1 1-1zm-8-1.6a1 1 0 0 1 1 1v3.6a1 1 0 0 1-2 0v-3.6a1 1 0 0 1 1-1zm-4.943-7.829a.686.686 0 1 0 0 1.372.686.686 0 0 0 0-1.372zm2.343 0a.686.686 0 1 0 0 1.372.686.686 0 0 0 0-1.372zm2.343 0a.686.686 0 1 0 0 1.372.686.686 0 0 0 0-1.372z" fill="url(#a)" fill-rule="evenodd"/></svg>